<?xml version="1.0" standalone="no"?>
<!DOCTYPE svg PUBLIC "-//W3C//DTD SVG 20010904//EN"
 "http://www.w3.org/TR/2001/REC-SVG-20010904/DTD/svg10.dtd">
<svg version="1.0" xmlns="http://www.w3.org/2000/svg"
 width="400.000000pt" height="400.000000pt" viewBox="0 0 400.000000 400.000000"
 preserveAspectRatio="xMidYMid meet">
<metadata>
Created by potrace 1.14, written by Peter Selinger 2001-2017
</metadata>
<g transform="translate(0.000000,400.000000) scale(0.100000,-0.100000)"
fill="#000000" stroke="none">
<path d="M2570 3615 c-6 -19 -14 -35 -17 -35 -3 0 -17 12 -32 28 -22 23 -26
24 -29 10 -4 -19 -22 -25 -22 -8 0 6 -4 10 -10 10 -5 0 -7 -7 -4 -15 5 -13 -1
-13 -46 1 -29 8 -84 15 -124 15 -103 0 -303 -47 -406 -95 -30 -14 -64 -26 -74
-26 -11 0 -47 -10 -80 -22 -68 -23 -180 -111 -208 -161 -10 -16 -22 -35 -28
-41 -5 -5 -10 -16 -10 -24 0 -8 -10 -28 -22 -44 -12 -17 -22 -43 -24 -57 -4
-52 -23 -128 -45 -182 -20 -49 -22 -73 -25 -274 -1 -121 -4 -229 -6 -240 -2
-15 2 -19 15 -17 13 2 17 -2 15 -15 -2 -11 2 -17 10 -15 8 1 11 -2 8 -7 -3 -5
-15 -7 -27 -4 -19 5 -20 3 -13 -32 8 -47 11 -70 13 -114 2 -52 14 -29 17 34 3
57 9 75 23 75 16 0 29 -99 19 -148 -16 -80 -14 -102 10 -102 11 0 13 3 5 8 -8
5 -9 21 -3 52 4 25 6 61 5 80 -2 19 1 73 7 120 6 47 10 128 9 180 -1 127 9
161 59 194 22 14 42 37 46 51 3 14 10 25 14 25 9 0 23 44 25 75 3 57 74 150
106 140 9 -3 25 2 35 12 10 10 20 18 23 19 30 4 61 18 65 30 3 8 13 14 21 14
10 0 13 -5 9 -11 -5 -8 1 -10 19 -5 19 4 31 1 44 -13 23 -24 63 -37 63 -20 0
14 81 4 91 -13 4 -7 9 -7 13 1 4 6 12 9 17 6 5 -4 9 -1 9 5 0 6 5 8 11 5 6 -4
8 -13 5 -21 -6 -15 34 -30 69 -26 17 2 15 -2 -10 -23 -36 -30 -27 -31 44 -4
47 17 52 18 41 4 -12 -15 -12 -19 5 -31 14 -11 16 -17 7 -26 -9 -9 -7 -14 6
-24 11 -9 13 -17 7 -21 -22 -17 -12 -45 26 -71 21 -15 38 -35 39 -45 0 -11 4
-15 12 -11 8 5 9 2 5 -10 -4 -10 -7 -21 -7 -24 0 -4 -4 -1 -9 7 -7 11 -12 10
-27 -5 -29 -29 -81 -64 -86 -58 -3 2 -11 -9 -18 -26 -7 -16 -16 -28 -20 -25
-4 3 -10 -2 -14 -10 -3 -8 -15 -15 -26 -15 -12 0 -18 4 -15 10 3 6 -1 7 -9 4
-20 -8 -20 -18 -1 -34 11 -9 12 -16 4 -26 -14 -17 -15 -65 0 -91 14 -28 14
-33 -4 -33 -12 0 -11 -6 4 -32 13 -23 19 -53 19 -101 0 -37 5 -74 11 -81 10
-11 9 -21 -3 -45 -9 -17 -17 -41 -18 -54 -1 -15 -8 -24 -18 -23 -9 1 -16 -9
-18 -26 -2 -16 1 -28 7 -28 6 0 11 -7 11 -15 0 -8 -4 -15 -10 -15 -5 0 -10 7
-10 15 0 11 -11 15 -40 15 -23 0 -40 -5 -40 -11 0 -8 -14 -10 -40 -6 -27 3
-43 1 -51 -9 -6 -8 -15 -12 -19 -9 -4 2 -17 -7 -30 -20 -13 -13 -26 -23 -29
-21 -3 2 -21 -3 -40 -13 -33 -15 -50 -37 -88 -108 -18 -36 -12 -53 12 -33 8 7
15 8 15 2 0 -18 31 -22 66 -7 19 8 34 19 34 24 0 6 11 11 24 11 13 0 26 5 28
12 3 8 30 12 77 12 58 1 75 -3 85 -16 16 -22 30 -24 22 -3 -7 19 44 21 63 3
11 -11 12 -10 6 1 -5 9 -4 12 3 7 17 -10 15 -36 -3 -42 -8 -4 -13 -10 -10 -14
6 -10 -24 -22 -36 -14 -5 3 -9 0 -9 -5 0 -6 -18 -11 -40 -11 -31 0 -38 -3 -34
-15 4 -10 0 -15 -14 -15 -31 0 -35 -17 -6 -24 16 -4 24 -12 21 -20 -4 -9 3
-12 24 -10 20 3 32 -1 36 -12 3 -8 12 -13 20 -9 11 4 13 1 9 -12 -4 -10 -4
-14 0 -10 4 4 14 1 22 -6 12 -9 16 -9 19 1 3 6 11 12 18 12 14 0 36 -81 25
-90 -4 -3 -11 -18 -17 -35 -11 -34 -49 -44 -47 -12 2 14 -1 15 -12 6 -11 -9
-14 -8 -14 5 0 9 -5 16 -11 16 -7 0 -9 -10 -7 -25 3 -14 1 -25 -3 -25 -5 0 -9
6 -9 14 0 7 -6 19 -14 25 -11 9 -15 6 -20 -15 -5 -19 -10 -24 -18 -16 -8 8
-15 6 -26 -4 -12 -13 -16 -13 -23 -2 -7 11 -11 11 -17 0 -5 -7 -20 -14 -33
-15 -13 0 -27 -6 -31 -12 -5 -6 -8 -5 -8 4 0 11 -3 11 -17 0 -15 -12 -16 -12
-10 5 6 14 4 17 -8 12 -9 -3 -18 1 -21 9 -4 10 -14 13 -30 9 -15 -4 -24 -2
-24 5 0 6 -9 11 -19 11 -11 0 -23 5 -26 10 -10 16 -38 12 -32 -4 3 -8 1 -17
-6 -20 -9 -3 -8 -7 2 -14 8 -6 16 -18 17 -27 3 -22 25 -46 38 -42 6 2 19 -5
30 -15 11 -10 32 -24 48 -30 15 -7 28 -16 28 -20 0 -5 9 -8 20 -8 11 0 20 -4
20 -10 0 -5 13 -10 29 -10 16 0 34 -7 41 -15 7 -8 16 -12 21 -9 5 3 9 0 9 -5
0 -6 16 -17 36 -26 19 -8 33 -19 29 -25 -3 -5 3 -10 13 -10 11 0 22 -7 26 -15
3 -8 1 -15 -4 -15 -6 0 -10 -5 -10 -11 0 -6 9 -8 22 -4 16 6 20 4 15 -8 -3 -9
7 -33 23 -55 16 -22 26 -43 23 -46 -4 -3 8 -6 25 -6 l32 0 -32 -31 c-33 -31
109 61 233 153 61 44 111 102 132 153 5 11 17 80 27 152 15 113 22 138 45 168
31 41 79 145 90 193 6 28 11 32 38 32 18 0 47 9 65 20 30 18 33 25 31 63 -3
58 19 153 48 210 21 43 24 60 22 155 -3 221 -2 254 9 261 7 4 13 26 14 49 1
22 5 39 10 36 4 -3 15 2 24 10 14 15 14 19 -5 50 -12 18 -21 37 -21 42 0 5 5
2 10 -6 5 -8 15 -15 22 -15 7 0 14 -10 16 -22 2 -13 8 -23 13 -23 6 0 7 5 4
10 -3 6 -1 10 5 10 7 0 10 7 7 14 -4 11 -1 13 11 9 9 -3 14 -3 10 2 -4 4 0 14
10 21 16 13 16 13 -1 14 -10 0 -16 4 -13 9 4 5 -3 7 -13 4 -14 -4 -26 6 -46
36 -15 22 -32 38 -38 34 -6 -3 -7 -1 -3 5 4 7 0 12 -11 13 -10 1 -4 5 12 9
l30 8 -32 1 c-20 1 -36 8 -41 19 -7 15 -9 37 -2 45 8 10 7 44 -2 54 -5 7 -8
25 -5 40 4 16 4 22 1 16 -10 -24 -24 -13 -24 19 0 30 -1 31 -15 12 -13 -17
-14 -15 -15 32 0 28 -3 54 -7 58 -18 17 -8 39 28 61 21 14 44 25 51 25 13 1
68 29 57 30 -13 0 -106 -35 -138 -52 -37 -21 -51 -17 -35 10 15 24 87 59 92
44 2 -8 11 -6 29 5 22 14 36 15 116 6 51 -6 101 -15 112 -19 14 -5 17 -4 10 4
-19 21 -141 54 -209 58 -59 3 -79 -1 -140 -26 -52 -22 -73 -27 -81 -18 -7 8
-5 9 7 5 14 -5 16 -2 9 15 -4 12 -14 24 -21 26 -9 3 -11 -1 -7 -12 4 -9 2 -16
-4 -16 -12 0 -3 51 10 60 5 3 11 23 15 44 4 21 15 51 24 65 l16 26 -22 -22
c-12 -12 -22 -28 -22 -35 0 -7 -9 -31 -20 -53 l-20 -40 5 39 c2 22 8 42 13 45
4 3 14 22 22 41 7 19 19 42 27 51 15 18 17 33 3 24 -5 -3 -10 -1 -10 5 0 6 -5
8 -11 4 -6 -3 -15 0 -20 7 -6 10 -9 11 -9 2 0 -7 -6 -13 -12 -13 -7 -1 -26
-19 -43 -40 -16 -21 -36 -39 -43 -40 -7 0 -11 4 -8 8 2 4 1 14 -5 22 -7 12 -9
12 -9 -3 0 -11 -4 -15 -11 -11 -8 5 -10 -1 -7 -18 3 -17 1 -25 -8 -24 -17 3
-45 27 -40 35 6 9 16 101 12 101 -3 0 -10 -16 -16 -35z m383 -252 c-7 -2 -19
-2 -25 0 -7 3 -2 5 12 5 14 0 19 -2 13 -5z m-973 -283 c0 -5 -2 -10 -4 -10 -3
0 -8 5 -11 10 -3 6 -1 10 4 10 6 0 11 -4 11 -10z m355 -140 c3 -5 1 -10 -4
-10 -6 0 -11 5 -11 10 0 6 2 10 4 10 3 0 8 -4 11 -10z m148 -344 c26 -20 21
-24 -34 -28 l-50 -3 26 23 c30 25 34 26 58 8z m-53 -66 c-14 -4 -34 -8 -45 -9
-16 -1 -17 1 -5 9 8 5 29 9 45 9 29 -1 29 -1 5 -9z m-30 -48 c0 -10 5 -23 12
-30 16 -16 -2 -16 -37 0 -24 11 -24 12 -9 30 22 23 34 23 34 0z m158 -5 c11
-8 9 -13 -10 -23 -31 -18 -57 -19 -40 -2 7 7 12 20 12 31 0 18 8 17 38 -6z
m-161 -53 c-3 -3 -12 -4 -19 -1 -8 3 -5 6 6 6 11 1 17 -2 13 -5z m33 -19 c0
-8 -2 -15 -4 -15 -2 0 -6 7 -10 15 -3 8 -1 15 4 15 6 0 10 -7 10 -15z m180
-136 c0 -5 -4 -7 -10 -4 -5 3 -10 -2 -10 -11 0 -14 -3 -15 -12 -6 -10 10 -10
15 2 22 20 13 30 12 30 -1z m-190 -129 c0 -5 -5 -10 -11 -10 -5 0 -7 5 -4 10
3 6 8 10 11 10 2 0 4 -4 4 -10z m27 -4 c-3 -7 -1 -18 5 -24 6 -6 8 -22 4 -38
l-7 -27 -24 23 c-24 22 -24 24 -8 51 18 29 40 40 30 15z m-166 -23 c13 -16 12
-17 -3 -4 -17 13 -22 21 -14 21 2 0 10 -8 17 -17z m207 -18 c-3 -3 -9 2 -12
12 -6 14 -5 15 5 6 7 -7 10 -15 7 -18z m-346 -129 c26 0 45 -3 42 -8 -3 -4
-14 -8 -24 -8 -10 0 -22 -9 -25 -21 -5 -16 -9 -18 -21 -8 -11 9 -20 9 -37 0
-31 -16 -78 -17 -107 -1 -18 9 -25 10 -28 1 -2 -6 -13 -11 -25 -11 -22 1 -22
1 2 20 12 11 27 18 31 15 5 -3 11 -1 15 4 3 6 12 8 20 5 8 -3 24 1 36 10 15
10 32 13 48 8 14 -3 47 -6 73 -6z"/>
<path d="M2859 3303 c-11 -15 -11 -16 0 -6 7 6 20 9 27 6 8 -3 14 0 14 6 0 17
-26 13 -41 -6z"/>
<path d="M2996 3237 c2 -7 14 -19 27 -26 21 -13 21 -12 -2 13 -27 29 -33 32
-25 13z"/>
<path d="M3050 3172 c6 -13 14 -21 18 -18 3 4 -2 14 -12 24 -18 16 -18 16 -6
-6z"/>
<path d="M2070 2833 c0 -5 13 -17 28 -27 l27 -19 -24 26 c-26 28 -31 32 -31
20z"/>
<path d="M1682 2733 c-12 -2 -20 -9 -16 -14 3 -6 -4 -13 -16 -16 -13 -3 -19
-11 -16 -19 4 -9 -2 -14 -15 -14 -16 0 -19 -4 -14 -21 5 -15 4 -19 -4 -15 -6
4 -11 2 -11 -3 0 -16 16 -13 35 6 13 12 33 16 84 15 71 -2 158 -19 166 -33 3
-4 12 -6 19 -3 9 3 17 -3 21 -15 3 -12 12 -21 19 -21 8 0 20 -7 27 -17 13 -15
11 -16 -16 -9 -16 5 -71 10 -121 13 -79 4 -97 2 -132 -16 -22 -11 -44 -26 -49
-33 -11 -19 -12 -38 -2 -38 6 0 8 -4 5 -9 -6 -10 28 -18 74 -19 22 -1 23 0 8
9 -26 14 -22 26 12 44 29 15 30 15 30 -8 0 -24 27 -57 47 -57 6 0 14 -6 16
-12 4 -10 6 -10 6 0 1 6 6 12 11 12 7 0 7 -6 0 -20 -6 -11 -20 -20 -32 -20
-12 0 -19 -3 -16 -6 12 -11 146 -9 141 2 -2 6 5 14 16 17 16 4 21 13 21 40 0
20 5 37 11 39 9 3 9 9 0 25 -10 19 -8 22 11 25 l23 3 -24 22 c-20 18 -20 21
-4 20 10 -1 17 4 16 10 -2 7 2 12 8 10 6 -1 13 8 15 20 3 16 0 21 -10 17 -9
-3 -16 4 -20 21 -4 15 -12 25 -18 23 -7 -3 -23 7 -36 21 -20 22 -23 23 -17 6
5 -17 3 -17 -19 4 -15 14 -26 20 -26 15 0 -10 -88 -10 -155 -1 -16 2 -40 2
-53 0z m93 -192 c-33 -10 -73 -23 -89 -30 -50 -20 -39 -4 15 23 33 16 69 26
93 25 l41 0 -60 -18z m25 -25 c0 -3 -4 -8 -10 -11 -5 -3 -10 -1 -10 4 0 6 5
11 10 11 6 0 10 -2 10 -4z m116 -25 l24 -19 -23 -6 c-38 -10 -44 -7 -39 19 5
30 7 30 38 6z m51 -57 c-3 -3 -12 -4 -19 -1 -8 3 -5 6 6 6 11 1 17 -2 13 -5z"/>
<path d="M1780 2430 c0 -5 5 -10 11 -10 5 0 7 5 4 10 -3 6 -8 10 -11 10 -2 0
-4 -4 -4 -10z"/>
<path d="M2023 2118 c-24 -11 -43 -24 -43 -29 0 -17 21 -20 36 -5 8 9 31 16
50 16 37 0 45 14 17 29 -13 6 -31 3 -60 -11z"/>
<path d="M1438 2060 c5 -33 17 -46 27 -30 3 5 2 10 -3 10 -5 0 -7 11 -4 25 3
17 0 25 -10 25 -10 0 -13 -8 -10 -30z"/>
<path d="M1465 1940 c-3 -5 -1 -10 4 -10 6 0 11 5 11 10 0 6 -2 10 -4 10 -3 0
-8 -4 -11 -10z"/>
<path d="M1730 1565 c-7 -9 -10 -18 -7 -21 3 -3 10 4 17 15 13 25 8 27 -10 6z"/>
<path d="M1524 1416 c-27 -29 -80 -90 -118 -134 l-68 -79 -97 -23 c-53 -12
-132 -30 -176 -40 -44 -11 -120 -26 -170 -35 -152 -28 -442 -102 -552 -141
l-43 -16 49 -71 c250 -370 634 -652 1070 -786 73 -23 133 -41 134 -41 3 0 -10
262 -33 665 -23 404 -23 388 -11 381 5 -4 12 29 16 71 9 109 41 262 58 279 4
4 7 11 7 16 0 19 -20 5 -66 -46z"/>
<path d="M2630 1375 c0 -10 5 -45 11 -79 13 -68 -1 -139 -66 -346 -19 -58 -45
-159 -59 -225 -15 -66 -56 -248 -92 -403 -36 -156 -64 -285 -62 -287 8 -8 275
68 368 105 282 112 503 261 719 485 127 132 141 152 114 162 -101 36 -243 97
-358 155 -77 38 -183 87 -235 108 -206 83 -191 73 -232 153 -20 40 -46 93 -58
119 -24 54 -50 81 -50 53z"/>
<path d="M1720 1242 c6 -13 14 -21 18 -18 3 4 -2 14 -12 24 -18 16 -18 16 -6
-6z"/>
<path d="M1871 1097 c70 -70 135 -127 144 -127 13 0 10 6 -11 22 -16 12 -81
69 -144 127 l-115 104 126 -126z"/>
<path d="M1808 854 c-27 -20 -48 -41 -48 -47 0 -6 27 -36 59 -66 70 -66 111
-124 111 -158 0 -13 -14 -54 -32 -90 -27 -58 -77 -257 -78 -317 0 -36 28 3 35
47 12 74 27 116 51 138 13 13 24 27 24 32 0 12 26 74 60 142 18 36 32 51 49
53 19 3 23 0 17 -14 -37 -97 -53 -213 -35 -261 5 -13 4 -25 -2 -29 -7 -4 -6
-10 1 -19 8 -10 8 -19 1 -34 -6 -11 -8 -27 -5 -35 3 -9 -1 -27 -10 -41 -9 -13
-16 -32 -16 -40 0 -18 -23 -45 -39 -45 -5 0 -13 -9 -16 -20 -3 -11 -15 -20
-26 -20 -43 0 -15 -19 38 -26 57 -7 242 2 253 12 3 3 5 99 5 212 0 194 -1 210
-22 256 -13 27 -23 58 -23 70 0 45 123 219 149 210 16 -5 -45 67 -68 81 -9 5
-22 10 -29 11 -8 2 -17 6 -20 10 -4 4 2 4 13 0 18 -6 18 -5 5 8 -12 11 -25 13
-60 7 -25 -5 -67 -7 -95 -5 -27 1 -71 -2 -98 -8 -39 -8 -52 -7 -72 6 -13 9
-26 16 -27 16 -2 0 -24 -17 -50 -36z m56 -18 c-17 -7 -41 -17 -55 -21 -21 -7
-22 -6 -11 8 12 14 37 22 82 25 8 1 1 -5 -16 -12z m121 3 c-4 -6 -13 -8 -20
-5 -7 2 -22 -2 -33 -10 -20 -14 -20 -14 8 -43 17 -16 36 -52 46 -87 9 -32 21
-62 26 -65 11 -7 -9 -24 -42 -34 -22 -7 -23 -6 -11 9 11 13 11 19 -1 38 -8 13
-21 40 -27 61 -7 21 -26 52 -42 68 -16 16 -29 33 -29 37 0 4 17 14 38 24 43
19 97 23 87 7z m-5 -60 c0 -6 -4 -7 -10 -4 -5 3 -10 11 -10 16 0 6 5 7 10 4 6
-3 10 -11 10 -16z"/>
<path d="M1916 63 c-6 -14 -5 -15 5 -6 7 7 10 15 7 18 -3 3 -9 -2 -12 -12z"/>
</g>
</svg>
